<?xml version="1.0" encoding="UTF-8"?>
<svg width="800" height="400" viewBox="0 0 800 400" fill="none" xmlns="http://www.w3.org/2000/svg">
  <!-- Background -->
  <rect width="800" height="400" fill="#F3F4F6"/>
  
  <!-- Birthday Cake -->
  <g transform="translate(200, 150)">
    <!-- Cake Base -->
    <rect x="0" y="100" width="200" height="60" fill="#FCD34D"/>
    <!-- Cake Middle -->
    <rect x="20" y="60" width="160" height="40" fill="#FBBF24"/>
    <!-- Cake Top -->
    <rect x="40" y="20" width="120" height="40" fill="#F59E0B"/>
    <!-- Candles -->
    <line x1="60" y1="0" x2="60" y2="20" stroke="#374151" stroke-width="2"/>
    <line x1="100" y1="0" x2="100" y2="20" stroke="#374151" stroke-width="2"/>
    <line x1="140" y1="0" x2="140" y2="20" stroke="#374151" stroke-width="2"/>
    <!-- Flame -->
    <circle cx="60" cy="0" r="3" fill="#EF4444"/>
    <circle cx="100" cy="0" r="3" fill="#EF4444"/>
    <circle cx="140" cy="0" r="3" fill="#EF4444"/>
  </g>

  <!-- Gift Icons -->
  <g transform="translate(500, 150)">
    <!-- Gift Box 1 -->
    <rect x="0" y="0" width="80" height="80" fill="#4F46E5"/>
    <rect x="0" y="-10" width="80" height="10" fill="#4338CA"/>
    <rect x="35" y="0" width="10" height="80" fill="#4338CA"/>
    <rect x="0" y="35" width="80" height="10" fill="#4338CA"/>
    
    <!-- Gift Box 2 -->
    <rect x="100" y="40" width="80" height="80" fill="#EC4899"/>
    <rect x="100" y="30" width="80" height="10" fill="#DB2777"/>
    <rect x="135" y="40" width="10" height="80" fill="#DB2777"/>
    <rect x="100" y="75" width="80" height="10" fill="#DB2777"/>
    
    <!-- Gift Box 3 -->
    <rect x="50" y="100" width="80" height="80" fill="#10B981"/>
    <rect x="50" y="90" width="80" height="10" fill="#059669"/>
    <rect x="85" y="100" width="10" height="80" fill="#059669"/>
    <rect x="50" y="135" width="80" height="10" fill="#059669"/>
  </g>
</svg> 