<?xml version="1.0" encoding="UTF-8"?>
<svg width="800" height="400" viewBox="0 0 800 400" fill="none" xmlns="http://www.w3.org/2000/svg">
  <!-- Background -->
  <rect width="800" height="400" fill="#F3F4F6"/>
  
  <!-- Gift Box -->
  <g transform="translate(200, 100)">
    <!-- Box Base -->
    <rect x="0" y="0" width="200" height="200" fill="#4F46E5"/>
    <!-- Box Lid -->
    <rect x="20" y="-20" width="200" height="20" fill="#4338CA"/>
    <!-- Ribbon -->
    <rect x="90" y="0" width="20" height="200" fill="#EF4444"/>
    <rect x="0" y="90" width="200" height="20" fill="#EF4444"/>
    <!-- Bow -->
    <circle cx="100" cy="100" r="20" fill="#DC2626"/>
    <path d="M80 100 Q100 80 120 100 Q100 120 80 100" fill="#DC2626"/>
    <path d="M100 80 Q120 100 100 120 Q80 100 100 80" fill="#DC2626"/>
  </g>

  <!-- Checklist -->
  <g transform="translate(500, 150)">
    <!-- Paper -->
    <rect x="0" y="0" width="200" height="150" fill="white" rx="10"/>
    <!-- Lines -->
    <line x1="20" y1="40" x2="180" y2="40" stroke="#E5E7EB" stroke-width="2"/>
    <line x1="20" y1="80" x2="180" y2="80" stroke="#E5E7EB" stroke-width="2"/>
    <line x1="20" y1="120" x2="180" y2="120" stroke="#E5E7EB" stroke-width="2"/>
    <!-- Checkmarks -->
    <path d="M30 30 L40 40 L50 30" stroke="#10B981" stroke-width="3" fill="none"/>
    <path d="M30 70 L40 80 L50 70" stroke="#10B981" stroke-width="3" fill="none"/>
    <path d="M30 110 L40 120 L50 110" stroke="#10B981" stroke-width="3" fill="none"/>
  </g>
</svg> 