<?xml version="1.0" encoding="UTF-8"?>
<svg width="800" height="400" viewBox="0 0 800 400" fill="none" xmlns="http://www.w3.org/2000/svg">
  <!-- Background -->
  <rect width="800" height="400" fill="#F3F4F6"/>
  
  <!-- Calendar -->
  <g transform="translate(200, 100)">
    <!-- Calendar Base -->
    <rect x="0" y="0" width="300" height="250" fill="white" rx="10"/>
    <!-- Calendar Header -->
    <rect x="0" y="0" width="300" height="50" fill="#4F46E5" rx="10 10 0 0"/>
    <!-- Calendar Grid -->
    <g transform="translate(20, 70)">
      <!-- Days of Week -->
      <text x="0" y="0" font-family="Arial" font-size="14" fill="#6B7280">S</text>
      <text x="40" y="0" font-family="Arial" font-size="14" fill="#6B7280">M</text>
      <text x="80" y="0" font-family="Arial" font-size="14" fill="#6B7280">T</text>
      <text x="120" y="0" font-family="Arial" font-size="14" fill="#6B7280">W</text>
      <text x="160" y="0" font-family="Arial" font-size="14" fill="#6B7280">T</text>
      <text x="200" y="0" font-family="Arial" font-size="14" fill="#6B7280">F</text>
      <text x="240" y="0" font-family="Arial" font-size="14" fill="#6B7280">S</text>
      
      <!-- Calendar Days -->
      <g transform="translate(0, 30)">
        <!-- Highlighted Day -->
        <circle cx="120" cy="80" r="15" fill="#4F46E5"/>
        <text x="115" y="85" font-family="Arial" font-size="14" fill="white">15</text>
        
        <!-- Other Days -->
        <text x="0" y="20" font-family="Arial" font-size="14" fill="#374151">1</text>
        <text x="40" y="20" font-family="Arial" font-size="14" fill="#374151">2</text>
        <text x="80" y="20" font-family="Arial" font-size="14" fill="#374151">3</text>
        <text x="160" y="20" font-family="Arial" font-size="14" fill="#374151">4</text>
        <text x="200" y="20" font-family="Arial" font-size="14" fill="#374151">5</text>
        <text x="240" y="20" font-family="Arial" font-size="14" fill="#374151">6</text>
      </g>
    </g>
  </g>

  <!-- Gift Icons -->
  <g transform="translate(550, 150)">
    <!-- Small Gift Box 1 -->
    <rect x="0" y="0" width="60" height="60" fill="#EF4444"/>
    <rect x="0" y="-10" width="60" height="10" fill="#DC2626"/>
    <rect x="25" y="0" width="10" height="60" fill="#DC2626"/>
    <rect x="0" y="25" width="60" height="10" fill="#DC2626"/>
    
    <!-- Small Gift Box 2 -->
    <rect x="80" y="20" width="60" height="60" fill="#10B981"/>
    <rect x="80" y="10" width="60" height="10" fill="#059669"/>
    <rect x="105" y="20" width="10" height="60" fill="#059669"/>
    <rect x="80" y="45" width="60" height="10" fill="#059669"/>
  </g>
</svg> 